<svg width="39" height="39" viewBox="0 0 39 39" fill="none" xmlns="http://www.w3.org/2000/svg">
<circle cx="19.1294" cy="19.6728" r="18.0191" fill="#2A4D65" stroke="#71EEFF" stroke-width="1.87"/>
<path d="M22.0019 20.0537L26.3542 15.7014C26.92 15.1791 26.92 14.3086 26.3542 13.7864L25.3967 12.8288C24.8745 12.263 24.004 12.263 23.4817 12.8288L19.1294 17.1812L14.7336 12.8288C14.2113 12.263 13.3408 12.263 12.8185 12.8288L11.861 13.7864C11.2952 14.3086 11.2952 15.1791 11.861 15.7014L16.2133 20.0537L11.861 24.4495C11.2952 24.9718 11.2952 25.8423 11.861 26.3646L12.8185 27.3221C13.3408 27.8879 14.2113 27.8879 14.7336 27.3221L19.1294 22.9698L23.4817 27.3221C24.004 27.8879 24.8745 27.8879 25.3967 27.3221L26.3542 26.3646C26.92 25.8423 26.92 24.9718 26.3542 24.4495L22.0019 20.0537Z" fill="#EAF4FB"/>
</svg>
