<svg width="17" height="16" viewBox="0 0 17 16" fill="none" xmlns="http://www.w3.org/2000/svg">
<path d="M8.58779 0.118094C4.2606 0.118094 0.754636 3.65565 0.754636 7.95125C0.754636 12.2784 4.2606 15.7844 8.58779 15.7844C12.8834 15.7844 16.4209 12.2784 16.4209 7.95125C16.4209 3.65565 12.8834 0.118094 8.58779 0.118094ZM8.58779 3.59248C9.31425 3.59248 9.91437 4.1926 9.91437 4.91906C9.91437 5.67711 9.31425 6.24564 8.58779 6.24564C7.82974 6.24564 7.26121 5.67711 7.26121 4.91906C7.26121 4.1926 7.82974 3.59248 8.58779 3.59248ZM10.3566 11.6151C10.3566 11.8362 10.1671 11.9942 9.97754 11.9942H7.19804C6.97694 11.9942 6.81901 11.8362 6.81901 11.6151V10.8571C6.81901 10.6676 6.97694 10.4781 7.19804 10.4781H7.57706V8.45661H7.19804C6.97694 8.45661 6.81901 8.29869 6.81901 8.07759V7.31954C6.81901 7.13003 6.97694 6.94052 7.19804 6.94052H9.2195C9.40901 6.94052 9.59852 7.13003 9.59852 7.31954V10.4781H9.97754C10.1671 10.4781 10.3566 10.6676 10.3566 10.8571V11.6151Z" fill="#778FBA"/>
</svg>
