<svg width="1160" height="415" viewBox="0 0 1160 415" fill="none" xmlns="http://www.w3.org/2000/svg">
<path d="M1.48145 21.2441V393.196C1.48145 404.242 10.4358 413.196 21.4814 413.196H1138.52C1149.56 413.196 1158.52 404.242 1158.52 393.196V69.1269C1158.52 63.6822 1156.3 58.4729 1152.37 54.7016L1102.51 6.81888C1098.79 3.24177 1093.82 1.24414 1088.66 1.24414H756.277H525.925H400.847H21.4814C10.4358 1.24414 1.48145 10.1985 1.48145 21.2441Z" fill="url(#paint0_linear_0:1)"/>
<path d="M762.546 1.24414H1088.63C1093.81 1.24414 1098.79 3.25337 1102.52 6.84898L1152.4 54.9645C1156.31 58.7338 1158.52 63.93 1158.52 69.3596V393.196C1158.52 404.242 1149.56 413.196 1138.52 413.196H21.4814C10.4357 413.196 1.48145 404.242 1.48145 393.196V21.2441C1.48145 10.1985 10.4358 1.24414 21.4814 1.24414H391.614" stroke="#71EEFF" stroke-width="2"/>
<defs>
<linearGradient id="paint0_linear_0:1" x1="580" y1="1.24414" x2="580" y2="374.102" gradientUnits="userSpaceOnUse">
<stop stop-color="#071325" stop-opacity="0"/>
<stop offset="1" stop-color="#071325" stop-opacity="0.8"/>
</linearGradient>
</defs>
</svg>
